<mxfile host="app.diagrams.net" modified="2024-02-26T22:28:46.635Z" agent="Mozilla/5.0 (Windows NT 10.0; Win64; x64) AppleWebKit/537.36 (KHTML, like Gecko) Chrome/122.0.0.0 Safari/537.36" version="23.1.7" etag="1KS1-pdVH18SzkyFF3Lj" type="github">
  <diagram name="Page-1" id="SlBVDK-jF84yLK3197XK">
    <mxGraphModel>
      <root>
        <mxCell id="0" />
        <mxCell id="1" parent="0" />
      </root>
    </mxGraphModel>
  </diagram>
</mxfile>
